<svg width="246" height="57" viewBox="0 0 246 57" fill="none" xmlns="http://www.w3.org/2000/svg">
<path d="M90.7702 44.2697C88.159 44.2697 85.7109 44.0637 83.4261 43.6517C81.1821 43.2809 79.244 42.7247 77.612 41.9831V33.5169C79.4072 34.2996 81.3861 34.9382 83.5485 35.4326C85.7517 35.927 87.8326 36.1742 89.791 36.1742C92.2391 36.1742 94.0547 35.9476 95.2379 35.4944C96.4619 35.0412 97.0739 34.0524 97.0739 32.5281C97.0739 31.4981 96.7679 30.6742 96.1559 30.0562C95.5847 29.4382 94.6259 28.9026 93.2795 28.4494C91.9738 27.9551 90.1786 27.3783 87.8938 26.7191C85.2009 25.8951 83.0589 24.9888 81.4677 24C79.8764 22.97 78.734 21.7341 78.0404 20.2921C77.3468 18.8502 77 17.0787 77 14.9775C77 11.1873 78.3464 8.28277 81.0393 6.26404C83.7321 4.24532 87.7102 3.23595 92.9735 3.23595C95.2583 3.23595 97.4819 3.42135 99.6444 3.79213C101.807 4.12172 103.561 4.51311 104.908 4.96629V13.4944C103.153 12.794 101.378 12.279 99.5832 11.9494C97.8287 11.6198 96.1151 11.4551 94.4423 11.4551C92.2391 11.4551 90.4438 11.661 89.0566 12.073C87.7102 12.485 87.037 13.4326 87.037 14.9157C87.037 15.7809 87.2818 16.4813 87.7714 17.0169C88.261 17.5112 89.0974 17.9644 90.2806 18.3764C91.5046 18.7884 93.1571 19.2828 95.2379 19.8595C98.4612 20.7247 100.93 21.7753 102.643 23.0112C104.357 24.206 105.54 25.6067 106.193 27.2135C106.846 28.779 107.172 30.5506 107.172 32.5281C107.172 36.03 105.826 38.8727 103.133 41.0562C100.44 43.1985 96.3191 44.2697 90.7702 44.2697Z" fill="white"/>
<path d="M124.167 44.2697C120.984 44.2697 118.7 43.5693 117.312 42.1685C115.925 40.7678 115.232 38.5225 115.232 35.4326V2H125.085V34.4438C125.085 35.3914 125.268 36.0506 125.636 36.4213C126.044 36.7509 126.635 36.9157 127.411 36.9157C128.512 36.9157 129.491 36.7715 130.348 36.4831V43.2191C129.41 43.5899 128.471 43.8577 127.533 44.0225C126.635 44.1873 125.513 44.2697 124.167 44.2697Z" fill="white"/>
<path d="M141.743 54.5281C140.274 54.5281 139.009 54.4457 137.949 54.2809C136.929 54.1573 135.909 53.8895 134.889 53.4775V46.5562C135.582 46.8034 136.215 46.9682 136.786 47.0506C137.398 47.133 138.01 47.1742 138.622 47.1742C140.295 47.1742 141.539 46.8652 142.355 46.2472C143.212 45.6704 144.069 44.6198 144.926 43.0955L131.89 14.3595H142.233L149.883 32.9607L157.411 14.3595H167.692L156.615 41.2416C155.513 43.9195 154.289 46.2472 152.943 48.2247C151.596 50.2434 150.026 51.7884 148.23 52.8595C146.435 53.9719 144.273 54.5281 141.743 54.5281Z" fill="white"/>
<path d="M181.619 54.5281C180.151 54.5281 178.886 54.4457 177.825 54.2809C176.805 54.1573 175.785 53.8895 174.765 53.4775V46.5562C175.458 46.8034 176.091 46.9682 176.662 47.0506C177.274 47.133 177.886 47.1742 178.498 47.1742C180.171 47.1742 181.415 46.8652 182.231 46.2472C183.088 45.6704 183.945 44.6198 184.802 43.0955L171.766 14.3595H182.109L189.759 32.9607L197.287 14.3595H207.569L196.491 41.2416C195.39 43.9195 194.166 46.2472 192.819 48.2247C191.473 50.2434 189.902 51.7884 188.107 52.8595C186.311 53.9719 184.149 54.5281 181.619 54.5281Z" fill="white"/>
<path d="M214.42 57V14.3595H222.988L223.478 16.8933C224.661 15.9045 225.987 15.1423 227.456 14.6067C228.925 14.03 230.639 13.7416 232.597 13.7416C236.718 13.7416 239.982 14.8745 242.389 17.1404C244.796 19.3652 246 23.1142 246 28.3876C246 33.6198 244.756 37.5749 242.267 40.2528C239.819 42.9307 236.432 44.2697 232.107 44.2697C229.047 44.2697 226.436 43.6311 224.274 42.3539V57H214.42ZM229.598 36.9775C233.841 36.9775 235.963 34.0524 235.963 28.2022C235.963 25.4007 235.473 23.5056 234.494 22.5169C233.515 21.5281 231.944 21.0337 229.782 21.0337C227.701 21.0337 225.865 21.7753 224.274 23.2584V35.1236C225.049 35.7004 225.824 36.1536 226.599 36.4831C227.415 36.8127 228.415 36.9775 229.598 36.9775Z" fill="white"/>
<path d="M48.0531 0.0724411L32.6609 31.5072H14.2337C0.792618 31.5072 0.359035 16.7654 0.359035 16.7654C0.359035 16.7654 -1.80888 0.0724411 14.2337 0.0724411H48.0531Z" fill="url(#paint0_linear_397_22)"/>
<path d="M0.260925 49.5008L15.6531 18.066H34.0804C47.5214 18.066 47.955 32.8078 47.955 32.8078C47.955 32.8078 50.1229 49.5008 34.0804 49.5008H0.260925Z" fill="url(#paint1_linear_397_22)"/>
<path fill-rule="evenodd" clip-rule="evenodd" d="M38.8776 18.8111L32.6609 31.5072H14.2337C12.4042 31.5072 10.8156 31.234 9.4364 30.7622L15.6531 18.066H34.0804C35.9099 18.066 37.4984 18.3392 38.8776 18.8111Z" fill="url(#paint2_linear_397_22)"/>
<defs>
<linearGradient id="paint0_linear_397_22" x1="24.157" y1="31.0736" x2="24.157" y2="0.0724408" gradientUnits="userSpaceOnUse">
<stop stop-color="#E84D5A"/>
<stop offset="1" stop-color="#E166E2"/>
</linearGradient>
<linearGradient id="paint1_linear_397_22" x1="24.157" y1="18.066" x2="24.157" y2="49.5008" gradientUnits="userSpaceOnUse">
<stop stop-color="#F37D88"/>
<stop offset="1" stop-color="#F19771"/>
</linearGradient>
<linearGradient id="paint2_linear_397_22" x1="24.157" y1="18.066" x2="24.157" y2="49.5008" gradientUnits="userSpaceOnUse">
<stop stop-color="#E23D85"/>
<stop offset="0.460345" stop-color="#E84F5A"/>
</linearGradient>
</defs>
</svg>
