<svg width="706" height="120" viewBox="0 0 706 120" fill="none" xmlns="http://www.w3.org/2000/svg">
<mask id="mask0_398_37" style="mask-type:luminance" maskUnits="userSpaceOnUse" x="0" y="0" width="706" height="120">
<path d="M0 -8.85195e-07H706V119.791H0V-8.85195e-07Z" fill="white"/>
</mask>
<g mask="url(#mask0_398_37)">
<mask id="mask1_398_37" style="mask-type:luminance" maskUnits="userSpaceOnUse" x="0" y="0" width="707" height="120">
<path d="M0.000366211 119.791H706.001V5.91244e-05H0.000366211V119.791Z" fill="white"/>
</mask>
<g mask="url(#mask1_398_37)">
<path d="M276.862 13.1134C276.862 7.16713 281.662 2.35767 287.57 2.35767C293.498 2.35767 298.316 7.16713 298.316 13.1134C298.316 19.0519 293.498 23.8664 287.57 23.8664C281.662 23.8664 276.862 19.0519 276.862 13.1134Z" fill="white"/>
<path d="M446.126 84.6538C446.126 78.7051 450.922 73.8905 456.83 73.8905C462.756 73.8905 467.574 78.7051 467.574 84.6538C467.574 90.5873 462.756 95.407 456.83 95.407C450.922 95.407 446.126 90.5873 446.126 84.6538Z" fill="white"/>
<path d="M100.795 80.005C91.5561 80.005 85.1354 72.6671 85.1354 62.1816C85.1354 51.6987 91.5561 44.3659 100.795 44.3659C110.088 44.3659 116.579 51.6987 116.579 62.1816C116.579 72.8328 110.223 80.005 100.795 80.005ZM100.795 28.7014C81.2486 28.7014 67.0629 42.7857 67.0629 62.1816C67.0629 81.5775 81.2486 95.6592 100.795 95.6592C120.415 95.6592 134.66 81.5775 134.66 62.1816C134.66 42.7857 120.415 28.7014 100.795 28.7014Z" fill="white"/>
<path d="M256.084 63.8561C255.324 62.4263 254.453 61.2156 253.525 60.2548L252.934 59.6278L253.556 59.0314C254.454 58.0858 255.371 56.9643 256.255 55.6645L273.505 30.0217H252.564L239.604 50.0802C238.87 51.1558 237.389 51.6987 235.172 51.6987H232.218V13.776C232.218 6.191 227.493 5.15875 222.388 5.15875H213.648L213.663 94.6729H232.218V67.822H233.956C236.071 67.822 237.512 68.0667 238.172 69.2161L248.408 88.5355C251.267 93.7783 254.116 94.6729 259.477 94.6729H273.696L263.106 77.1554L256.084 63.8561Z" fill="white"/>
<path d="M346.161 28.5586C336.723 28.5586 330.701 32.7513 327.327 36.2966L326.2 37.4359L325.802 35.8863C324.811 32.0886 321.47 29.9987 316.441 29.9987H308.125L308.177 94.65H326.606V64.8527C326.606 61.9395 326.985 59.4112 327.755 57.1045C329.806 50.1235 335.528 45.783 342.68 45.783C348.433 45.783 350.681 48.8186 350.681 56.6636V84.822C350.681 91.5176 353.777 94.65 360.478 94.65H369.248L369.218 53.5312C369.218 37.1938 361.245 28.5586 346.161 28.5586Z" fill="white"/>
<path d="M287.813 30.0268H279.078L279.138 80.0152L279.132 94.6653H288.456C288.573 94.6653 288.667 94.678 288.785 94.678L293.127 94.6653H297.45V94.6399H297.48L297.518 39.842C297.518 33.2306 294.35 30.0268 287.813 30.0268Z" fill="white"/>
<path d="M173.182 80.005C163.943 80.005 157.51 72.6671 157.51 62.1816C157.51 51.6987 163.943 44.3659 173.182 44.3659C182.455 44.3659 188.964 51.6987 188.964 62.1816C188.964 72.8328 182.61 80.005 173.182 80.005ZM173.182 28.7014C153.615 28.7014 139.427 42.7857 139.427 62.1816C139.427 81.5775 153.615 95.6592 173.182 95.6592C192.782 95.6592 207.05 81.5775 207.05 62.1816C207.05 42.7857 192.782 28.7014 173.182 28.7014Z" fill="white"/>
</g>
</g>
<mask id="mask2_398_37" style="mask-type:luminance" maskUnits="userSpaceOnUse" x="0" y="0" width="706" height="120">
<path d="M0 -8.85195e-07H706V119.791H0V-8.85195e-07Z" fill="white"/>
</mask>
<g mask="url(#mask2_398_37)">
<mask id="mask3_398_37" style="mask-type:luminance" maskUnits="userSpaceOnUse" x="0" y="2" width="706" height="118">
<path d="M0.000732422 2.35767H705.851V119.638H0.000732422V2.35767Z" fill="white"/>
</mask>
<g mask="url(#mask3_398_37)">
<mask id="mask4_398_37" style="mask-type:luminance" maskUnits="userSpaceOnUse" x="0" y="0" width="707" height="120">
<path d="M0.000732422 119.791H706.001V9.72714e-05H0.000732422V119.791Z" fill="white"/>
</mask>
<g mask="url(#mask4_398_37)">
<path d="M568.201 80.0049C558.967 80.0049 552.529 72.6671 552.529 62.1816C552.529 51.6987 558.967 44.3659 568.201 44.3659C577.476 44.3659 583.988 51.6987 583.988 62.1816C583.988 72.8328 577.631 80.0049 568.201 80.0049ZM568.201 28.7014C548.64 28.7014 534.451 42.7857 534.451 62.1816C534.451 81.5775 548.64 95.6592 568.201 95.6592C587.804 95.6592 602.068 81.5775 602.068 62.1816C602.068 42.7857 587.804 28.7014 568.201 28.7014Z" fill="white"/>
<path d="M408.076 77.1605C398.001 77.1605 394.415 68.3699 394.415 60.1324C394.415 56.503 395.332 44.6743 407.108 44.6743C412.96 44.6743 420.759 46.3514 420.759 60.7416C420.759 74.3136 413.857 77.1605 408.076 77.1605ZM430.327 29.8534C426.83 29.8534 424.138 31.2476 422.79 33.7938L422.281 34.7826L421.426 34.041C418.452 31.4668 413.118 28.4134 404.457 28.4134C387.225 28.4134 375.624 41.3559 375.624 60.6167C375.624 79.8546 387.628 93.2991 404.804 93.2991C410.671 93.2991 415.307 91.9304 418.982 89.1472L420.405 88.0793V89.8762C420.405 98.5113 414.82 103.275 404.697 103.275C399.778 103.275 395.3 102.077 392.305 100.991C388.395 99.8112 386.104 100.787 384.518 104.71L383.056 108.329L380.986 113.615L382.268 114.298C388.747 117.736 397.181 119.788 404.804 119.788C420.499 119.788 438.824 111.755 438.824 89.1472L438.891 29.8534H430.327Z" fill="white"/>
</g>
</g>
</g>
<mask id="mask5_398_37" style="mask-type:luminance" maskUnits="userSpaceOnUse" x="0" y="0" width="706" height="120">
<path d="M0 -8.85195e-07H706V119.791H0V-8.85195e-07Z" fill="white"/>
</mask>
<g mask="url(#mask5_398_37)">
<mask id="mask6_398_37" style="mask-type:luminance" maskUnits="userSpaceOnUse" x="0" y="0" width="707" height="120">
<path d="M0.000366211 119.791H706.001V5.91244e-05H0.000366211V119.791Z" fill="white"/>
</mask>
<g mask="url(#mask6_398_37)">
<path d="M32.1628 79.2633L17.1613 79.2483V61.3129C17.1613 57.4796 18.6474 55.4864 21.9323 55.0277H32.1628C39.4649 55.0277 44.1829 59.6333 44.1881 67.0832C44.1829 74.7294 39.5822 79.2582 32.1628 79.2633ZM17.1613 30.8805V26.1603C17.1613 22.0288 18.9095 20.0637 22.7458 19.8114H30.4219C37.0052 19.8114 40.9483 23.7517 40.9483 30.3428C40.9483 35.3689 38.2492 41.2335 30.664 41.2335H17.1613V30.8805ZM51.322 48.7803L48.6098 47.2562L50.9773 45.2325C53.7303 42.8647 58.346 37.543 58.346 28.3472C58.346 14.2781 47.4327 5.19691 30.5418 5.19691H11.2659L9.07122 5.19182C4.06348 5.37538 0.0567641 9.44821 0.000732422 14.4871V94.3467H8.84687C8.86929 94.3517 8.87679 94.3467 8.88426 94.3518L30.9226 94.3467C49.6991 94.3467 61.8184 84.1262 61.8184 68.296C61.8184 59.7731 57.9054 52.4862 51.322 48.7803Z" fill="white"/>
<path d="M684.39 28.7677C676.744 28.7677 669.352 32.3486 664.606 38.3534L663.271 40.0458L662.223 38.1521C658.811 31.9281 652.936 28.7677 644.767 28.7677C636.201 28.7677 630.455 33.5465 627.787 36.3884L626.041 38.2795L625.369 35.792C624.395 32.211 621.207 30.2383 616.377 30.2383H608.631L608.556 94.6397H626.155V66.2112C626.155 63.721 626.464 61.2564 627.088 58.6796C628.77 51.8108 633.386 44.422 641.147 45.1611C645.934 45.6199 648.271 49.3181 648.271 56.4623V94.6397H665.994V66.2112C665.994 63.0992 666.285 60.7696 666.987 58.4324C668.414 51.8745 673.233 45.151 680.721 45.151C686.14 45.151 688.143 48.2196 688.143 56.4623V85.2247C688.143 91.7316 691.046 94.6397 697.548 94.6397H705.832L705.846 53.5261C705.846 37.1021 698.619 28.7677 684.39 28.7677Z" fill="white"/>
<path d="M524.26 72.2797C524.208 72.3432 516.634 80.3286 506.664 80.3286C497.58 80.3286 488.402 74.7545 488.402 62.3116C488.402 51.5687 495.518 44.0601 505.703 44.0601C509.011 44.0601 512.773 45.2453 513.362 47.2384L513.448 47.5748C514.804 52.0938 518.911 52.3359 519.719 52.3359L529.36 52.3463V43.9177C529.36 32.8001 515.219 28.768 505.703 28.768C485.354 28.768 470.588 42.9364 470.588 62.447C470.588 81.95 485.193 96.098 505.331 96.098C522.802 96.098 532.304 84.6134 532.393 84.4987L532.9 83.8768L525.264 71.2096L524.26 72.2797Z" fill="white"/>
</g>
</g>
</svg>
