<svg width="486" height="486" viewBox="0 0 486 486" fill="none" xmlns="http://www.w3.org/2000/svg">
<rect width="485.611" height="485.611" fill="url(#paint0_linear_368_2)"/>
<g filter="url(#filter0_d_368_2)">
<path d="M381.858 98.5299L292.875 280.257H186.346C108.642 280.257 106.135 195.033 106.135 195.033C106.135 195.033 93.6022 98.5299 186.346 98.5299H381.858Z" fill="url(#paint1_linear_368_2)"/>
<path d="M105.568 384.279L194.551 202.552H301.081C378.785 202.552 381.291 287.776 381.291 287.776C381.291 287.776 393.824 384.279 301.081 384.279H105.568Z" fill="url(#paint2_linear_368_2)"/>
<path fill-rule="evenodd" clip-rule="evenodd" d="M328.814 206.859L292.875 280.257H186.346C175.769 280.257 166.586 278.678 158.612 275.95L194.551 202.552H301.081C311.658 202.552 320.841 204.131 328.814 206.859Z" fill="url(#paint3_linear_368_2)"/>
</g>
<defs>
<filter id="filter0_d_368_2" x="101.568" y="95.5299" width="284.291" height="293.749" filterUnits="userSpaceOnUse" color-interpolation-filters="sRGB">
<feFlood flood-opacity="0" result="BackgroundImageFix"/>
<feColorMatrix in="SourceAlpha" type="matrix" values="0 0 0 0 0 0 0 0 0 0 0 0 0 0 0 0 0 0 127 0" result="hardAlpha"/>
<feOffset dy="1"/>
<feGaussianBlur stdDeviation="2"/>
<feComposite in2="hardAlpha" operator="out"/>
<feColorMatrix type="matrix" values="0 0 0 0 0 0 0 0 0 0 0 0 0 0 0 0 0 0 0.5 0"/>
<feBlend mode="normal" in2="BackgroundImageFix" result="effect1_dropShadow_368_2"/>
<feBlend mode="normal" in="SourceGraphic" in2="effect1_dropShadow_368_2" result="shape"/>
</filter>
<linearGradient id="paint0_linear_368_2" x1="242.806" y1="0" x2="242.806" y2="485.611" gradientUnits="userSpaceOnUse">
<stop stop-color="#2B6AF1"/>
<stop offset="1" stop-color="#532CBE"/>
</linearGradient>
<linearGradient id="paint1_linear_368_2" x1="243.713" y1="277.75" x2="243.713" y2="98.5299" gradientUnits="userSpaceOnUse">
<stop stop-color="#E84D5A"/>
<stop offset="1" stop-color="#E166E2"/>
</linearGradient>
<linearGradient id="paint2_linear_368_2" x1="243.713" y1="202.552" x2="243.713" y2="384.279" gradientUnits="userSpaceOnUse">
<stop stop-color="#F37D88"/>
<stop offset="1" stop-color="#F19771"/>
</linearGradient>
<linearGradient id="paint3_linear_368_2" x1="243.713" y1="202.552" x2="243.713" y2="384.28" gradientUnits="userSpaceOnUse">
<stop stop-color="#E23D85"/>
<stop offset="0.460345" stop-color="#E84F5A"/>
</linearGradient>
</defs>
</svg>
