<svg width="726" height="146" viewBox="0 0 726 146" fill="none" xmlns="http://www.w3.org/2000/svg">
<g clip-path="url(#clip0_398_81)">
<path d="M180.704 11.1076C176.486 11.1076 173.089 14.5003 173.089 18.7165V111.605C173.089 115.822 176.486 119.214 180.704 119.214H239.137C240.241 119.214 241.13 118.327 241.13 117.224V106.568C241.13 105.465 240.241 104.577 239.137 104.577H189.449V70.6072H234.128C235.232 70.6072 236.12 69.719 236.12 68.6159V58.5471C236.12 57.4441 235.232 56.5564 234.128 56.5564H189.449V25.4014H239.137C240.241 25.4014 241.13 24.5137 241.13 23.4107V13.0983C241.13 11.9952 240.241 11.1076 239.137 11.1076H180.704Z" fill="white"/>
<path d="M377.968 38.1707C364.065 38.1707 355.431 42.9568 349.651 50.9144V42.6007C349.651 41.4976 348.762 40.6095 347.659 40.6095H335.627C334.523 40.6095 333.635 41.4976 333.635 42.6007V144.009C333.635 145.112 334.523 146 335.627 146H347.866C348.97 146 349.859 145.112 349.859 144.009V109.317C355.222 117.035 363.912 121.604 377.968 121.604C401.608 121.603 416.327 102.902 416.327 79.8626C416.327 56.8234 401.912 38.1707 377.968 38.1707ZM374.535 51.5862C391.542 51.5862 399.91 64.2461 399.91 79.8626C399.91 95.4792 391.542 108.139 374.535 108.139C357.528 108.139 349.161 95.4792 349.161 79.8626C349.161 64.2461 357.528 51.5862 374.535 51.5862Z" fill="white"/>
<path d="M615.388 40.6094H627.489C628.593 40.6094 629.481 41.4975 629.481 42.6005V117.223C629.481 118.326 628.593 119.214 627.489 119.214H615.388C614.284 119.214 613.396 118.326 613.396 117.223V42.6005C613.396 41.4975 614.284 40.6094 615.388 40.6094Z" fill="white"/>
<path d="M615.214 11.0686H627.663C628.766 11.0686 629.655 11.9566 629.655 13.0596V25.5029C629.655 26.606 628.766 27.494 627.663 27.494H615.214C614.111 27.494 613.222 26.606 613.222 25.5029V13.0596C613.222 11.9566 614.111 11.0686 615.214 11.0686Z" fill="white"/>
<path d="M551.728 121.604C565.632 121.604 574.265 116.818 580.046 108.86V117.223C580.046 118.326 580.934 119.214 582.038 119.214H594.07C595.173 119.214 596.062 118.326 596.062 117.223V13.0987C596.062 11.9956 595.173 11.1075 594.07 11.1075H581.83C580.726 11.1075 579.838 11.9956 579.838 13.0987V50.899C574.082 43.3776 565.784 38.1706 551.728 38.1707C528.089 38.1709 513.369 56.8724 513.369 79.9116C513.369 102.951 527.784 121.604 551.728 121.604ZM555.161 108.188C538.154 108.188 529.787 95.5283 529.787 79.9117C529.787 64.2951 538.154 51.6353 555.161 51.6353C572.168 51.6353 580.536 64.2951 580.536 79.9117C580.536 95.5283 572.168 108.188 555.161 108.188Z" fill="white"/>
<path d="M681.666 38.2201C657.722 38.2201 643.307 56.8726 643.307 79.9119C643.307 102.951 657.722 121.604 681.666 121.604C695.57 121.604 704.203 116.818 709.984 108.86V117.223C709.984 118.326 710.872 119.214 711.976 119.214H724.008C725.111 119.214 726 118.326 726 117.223V79.9119V42.6007C726 41.4977 725.111 40.6095 724.008 40.6095H711.976C710.872 40.6095 709.984 41.4977 709.984 42.6007V50.9638C704.203 43.0062 695.57 38.2201 681.666 38.2201ZM685.099 51.6355C702.106 51.6355 710.474 64.2953 710.474 79.9119C710.474 95.5285 702.106 108.188 685.099 108.188C668.092 108.188 659.725 95.5285 659.725 79.9119C659.725 64.2953 668.092 51.6355 685.099 51.6355Z" fill="white"/>
<path d="M254.016 40.6095C252.296 40.6095 251.988 41.9667 252.769 43.0417L278.379 78.0962L250.27 116.781C249.489 117.856 249.797 119.214 251.517 119.214H265.384C266.587 119.214 267.212 118.804 267.611 118.214L286.765 89.9614L306.715 118.214C307.126 118.796 307.739 119.214 308.942 119.214H323.34C325.059 119.214 325.371 117.854 324.587 116.781L296.316 78.0961L321.766 43.0417C322.546 41.9667 322.238 40.6095 320.519 40.6095H306.923C305.72 40.6095 305.097 41.0202 304.696 41.6091L287.889 66.299L270.526 41.6091C270.117 41.0257 269.501 40.6095 268.298 40.6095H254.016Z" fill="white"/>
<path d="M464.885 38.1707C440.807 38.1707 426.315 55.4751 426.315 79.8872C426.315 106.812 443.445 121.604 464.885 121.604C490.794 121.604 501.007 106.373 501.578 105.803C502.235 105.146 502.056 103.924 501.504 103.384L494.016 96.045C493.464 95.5044 492.414 95.4214 491.688 96.1534C491.141 96.7046 482.024 108.223 467.088 108.223C451.213 108.223 443.398 98.5018 442.346 84.1803H501.505C503.339 84.1803 503.439 82.55 503.444 81.4797C503.567 52.404 486.662 38.1707 464.885 38.1707ZM464.937 50.8231C479.499 50.8231 485.599 59.5756 486.886 72.043H442.921C444.65 59.821 451.071 50.8231 464.937 50.8231Z" fill="white"/>
<path d="M27.0705 0H103.497C118.494 0 130.567 12.0677 130.567 27.0577V103.447C130.567 118.437 118.494 130.505 103.497 130.505H27.0705C12.0734 130.505 0 118.437 0 103.447V27.0577C0 12.0677 12.0734 0 27.0705 0Z" fill="white"/>
<path d="M36.5117 23.3651C35.2951 23.3651 34.5304 23.6445 33.8861 24.2885L20.839 37.3294C20.5968 37.5715 20.4606 37.9002 20.4606 38.2427C20.4605 38.9556 21.0389 39.5336 21.7522 39.5336H78.3117L43.5404 74.288C42.8551 74.9729 42.4565 75.3714 42.4565 76.7155L42.4565 85.8598C42.4565 86.4135 42.7085 86.8934 43.0701 87.2549C43.4317 87.6163 43.9113 87.8676 44.4653 87.8676H53.6145C54.9592 87.8676 55.3573 87.4697 56.0425 86.7848L90.8138 52.0299V108.563C90.8139 109.276 91.3922 109.854 92.1054 109.854C92.448 109.854 92.7769 109.718 93.0191 109.475L106.066 96.4346C106.71 95.7906 106.99 95.0263 106.99 93.8102L106.99 32.0795C106.99 30.9351 106.764 29.8019 106.326 28.7446C105.888 27.6873 105.246 26.7266 104.436 25.9174C103.627 25.1081 102.665 24.4662 101.607 24.0283C100.55 23.5904 99.4159 23.365 98.2709 23.365L36.5117 23.3651Z" fill="#E44474"/>
<path d="M25.4305 90.4088H37.9804C39.0302 90.4088 39.8753 91.2535 39.8753 92.3028V104.925C39.8753 105.975 39.0302 106.819 37.9804 106.819H25.4305C24.3807 106.819 23.5355 105.975 23.5355 104.925V92.3028C23.5355 91.2535 24.3807 90.4088 25.4305 90.4088Z" fill="#E44474"/>
</g>
<defs>
<clipPath id="clip0_398_81">
<rect width="726" height="146" fill="white"/>
</clipPath>
</defs>
</svg>
