<svg width="87" height="90" viewBox="0 0 87 90" fill="none" xmlns="http://www.w3.org/2000/svg">
<g filter="url(#filter0_d_15_5)">
<path d="M82.5158 3L57.2286 54.6428H26.9553C4.87355 54.6428 4.16124 30.4241 4.16124 30.4241C4.16124 30.4241 0.599663 3 26.9553 3H82.5158Z" fill="url(#paint0_linear_15_5)"/>
<path d="M4 84.2038L29.2871 32.561H59.5605C81.6422 32.561 82.3545 56.7797 82.3545 56.7797C82.3545 56.7797 85.9161 84.2038 59.5605 84.2038H4Z" fill="url(#paint1_linear_15_5)"/>
<path fill-rule="evenodd" clip-rule="evenodd" d="M67.4418 33.785L57.2286 54.6428H26.9553C23.9497 54.6428 21.3399 54.1941 19.074 53.4188L29.2872 32.561H59.5605C62.5661 32.561 65.1759 33.0097 67.4418 33.785Z" fill="url(#paint2_linear_15_5)"/>
</g>
<defs>
<filter id="filter0_d_15_5" x="0" y="0" width="86.5158" height="89.2038" filterUnits="userSpaceOnUse" color-interpolation-filters="sRGB">
<feFlood flood-opacity="0" result="BackgroundImageFix"/>
<feColorMatrix in="SourceAlpha" type="matrix" values="0 0 0 0 0 0 0 0 0 0 0 0 0 0 0 0 0 0 127 0" result="hardAlpha"/>
<feOffset dy="1"/>
<feGaussianBlur stdDeviation="2"/>
<feComposite in2="hardAlpha" operator="out"/>
<feColorMatrix type="matrix" values="0 0 0 0 0 0 0 0 0 0 0 0 0 0 0 0 0 0 0.5 0"/>
<feBlend mode="normal" in2="BackgroundImageFix" result="effect1_dropShadow_15_5"/>
<feBlend mode="normal" in="SourceGraphic" in2="effect1_dropShadow_15_5" result="shape"/>
</filter>
<linearGradient id="paint0_linear_15_5" x1="43.2579" y1="53.9304" x2="43.2579" y2="2.99999" gradientUnits="userSpaceOnUse">
<stop stop-color="#E84D5A"/>
<stop offset="1" stop-color="#E166E2"/>
</linearGradient>
<linearGradient id="paint1_linear_15_5" x1="43.2579" y1="32.561" x2="43.2579" y2="84.2038" gradientUnits="userSpaceOnUse">
<stop stop-color="#F37D88"/>
<stop offset="1" stop-color="#F19771"/>
</linearGradient>
<linearGradient id="paint2_linear_15_5" x1="43.2579" y1="32.561" x2="43.2579" y2="84.2038" gradientUnits="userSpaceOnUse">
<stop stop-color="#E23D85"/>
<stop offset="0.460345" stop-color="#E84F5A"/>
</linearGradient>
</defs>
</svg>
