<svg width="10" height="10" viewBox="0 0 10 10" fill="none" xmlns="http://www.w3.org/2000/svg">
<g clip-path="url(#clip0_481_271)">
<path d="M5.00017 0.833496C7.30142 0.833496 9.16683 2.69891 9.16683 5.00016C9.16683 7.30141 7.30142 9.16683 5.00017 9.16683C4.29098 9.16787 3.59337 8.98712 2.97392 8.64183L2.84683 8.56766L1.5835 8.93933C1.51475 8.95959 1.44197 8.96195 1.37205 8.9462C1.30213 8.93045 1.23739 8.8971 1.18397 8.84931C1.13056 8.80153 1.09023 8.74089 1.06681 8.67315C1.04339 8.60541 1.03766 8.53282 1.05017 8.46225L1.061 8.41683L1.43267 7.1535C1.03973 6.50404 0.83249 5.75923 0.8335 5.00016C0.8335 2.69891 2.69892 0.833496 5.00017 0.833496ZM5.00017 1.66683C4.40334 1.66672 3.81744 1.82685 3.30364 2.1305C2.78983 2.43415 2.36698 2.87018 2.07923 3.39305C1.79149 3.91593 1.6494 4.50647 1.66782 5.10301C1.68623 5.69955 1.86447 6.2802 2.18392 6.78433C2.26642 6.91433 2.30183 7.07433 2.27392 7.23308L2.25767 7.301L2.07392 7.92641L2.69933 7.74266C2.87975 7.68933 3.06725 7.72183 3.216 7.81641C3.6528 8.09299 4.14795 8.26417 4.66231 8.31643C5.17667 8.36868 5.69613 8.30057 6.17963 8.11749C6.66313 7.93441 7.09741 7.64136 7.44816 7.26153C7.7989 6.8817 8.05648 6.42548 8.20053 5.92896C8.34459 5.43243 8.37117 4.9092 8.27819 4.40062C8.1852 3.89205 7.97518 3.41208 7.66475 2.99865C7.35431 2.58523 6.95196 2.24968 6.48951 2.01853C6.02705 1.78738 5.51717 1.66698 5.00017 1.66683ZM3.79267 2.9935C3.8388 2.97352 3.88933 2.9659 3.93931 2.97137C3.98928 2.97685 4.03696 2.99525 4.07767 3.02475C4.28767 3.17808 4.45433 3.38391 4.59767 3.58475L4.73392 3.78225L4.79767 3.876C4.83445 3.92978 4.8525 3.99418 4.84904 4.05924C4.84557 4.12431 4.82079 4.18642 4.7785 4.236L4.74725 4.26766L4.36225 4.5535C4.34372 4.56691 4.33068 4.58659 4.32555 4.60888C4.32041 4.63118 4.32354 4.65458 4.33433 4.67475C4.42183 4.83308 4.57642 5.06933 4.75392 5.24683C4.93183 5.42433 5.17892 5.58933 5.34808 5.68641C5.38475 5.70725 5.42892 5.70058 5.45892 5.6735L5.47475 5.65475L5.72517 5.2735C5.77113 5.21225 5.83903 5.17119 5.91461 5.15892C5.9902 5.14664 6.0676 5.16411 6.13058 5.20766L6.35683 5.36558C6.58183 5.526 6.79808 5.6985 6.96933 5.91725C7.00118 5.95828 7.02142 6.00711 7.02794 6.05863C7.03447 6.11016 7.02703 6.16249 7.00642 6.21016C6.84142 6.59516 6.4235 6.92308 5.98933 6.90725L5.92308 6.90308L5.8435 6.89558C5.82848 6.8938 5.81348 6.89185 5.7985 6.88975L5.69933 6.87308C5.31433 6.80058 4.69725 6.58225 4.05767 5.94308C3.4185 5.3035 3.20017 4.68641 3.12767 4.30141L3.111 4.20225L3.10058 4.11558L3.09517 4.04266C3.09451 4.03225 3.09395 4.02183 3.0935 4.01141C3.07767 3.57641 3.40725 3.1585 3.79267 2.9935Z" fill="white"/>
</g>
<defs>
<clipPath id="clip0_481_271">
<rect width="10" height="10" fill="white"/>
</clipPath>
</defs>
</svg>
